<?xml version="1.0" encoding="UTF-8"?>
<svg width="1796px" height="1174px" viewBox="0 0 1796 1174" version="1.1" xmlns="http://www.w3.org/2000/svg" xmlns:xlink="http://www.w3.org/1999/xlink">
    <title>ckd_logo_3_onwhite</title>
    <defs>
        <linearGradient x1="107.906859%" y1="9.86643108%" x2="107.906859%" y2="108.166322%" id="linearGradient-1">
            <stop stop-color="#8888DD" offset="0%"></stop>
            <stop stop-color="#88DDDD" offset="100%"></stop>
        </linearGradient>
        <linearGradient x1="107.906859%" y1="9.86643108%" x2="107.906859%" y2="108.166322%" id="linearGradient-2">
            <stop stop-color="#8888DD" offset="0%"></stop>
            <stop stop-color="#88DDDD" offset="100%"></stop>
        </linearGradient>
    </defs>
    <g id="ckd_logo_3_onwhite" stroke="none" stroke-width="1" fill="none" fill-rule="evenodd">
        <g id="ckd_logo" transform="translate(-483.000000, -770.000000)" fill-rule="nonzero">
            <path d="M698.12,1939.88 L795.88,1862.92 C699.16,1727.72 645.08,1574.84 645.08,1428.2 C645.08,1281.56 699.16,1127.64 795.88,993.48 L698.12,916.52 C563.96,1061.08 491.16,1236.84 491.16,1428.2 C491.16,1619.56 563.96,1795.32 698.12,1939.88 Z" id="(" fill="url(#linearGradient-1)"></path>
            <path d="M2156.25781,1311.07031 C2250.91042,1311.07031 2259.63052,1317.37492 2265.08778,1335.97864 C2268.9076,1366.26019 2270.84,1397.02305 2270.84,1428.2 C2270.84,1619.56 2198.04,1795.32 2063.88,1939.88 L2063.88,1939.88 L1966.12,1862.92 C2062.84,1727.72 2116.92,1574.84 2116.92,1428.2 C2116.92,1392.40332 2113.69732,1356.17283 2107.41838,1319.90185 C2121.19662,1314.45075 2137.34365,1311.07031 2156.25781,1311.07031 Z" id="Combined-Shape" fill="url(#linearGradient-2)"></path>
            <path d="M1053,1726.6 C1184.04,1726.6 1281.8,1648.6 1314.04,1531.08 L1170.52,1491.56 C1157,1548.76 1120.6,1590.36 1053,1590.36 C968.76,1590.36 920.92,1532.12 920.92,1435.4 C920.92,1338.68 968.76,1280.44 1053,1280.44 C1120.6,1280.44 1157,1322.04 1170.52,1379.24 L1314.04,1339.72 C1281.8,1222.2 1184.04,1144.2 1053,1144.2 C885.56,1144.2 772.2,1263.8 772.2,1435.4 C772.2,1607 885.56,1726.6 1053,1726.6 Z M1507.48,1711 L1507.48,1565.4 L1593.8,1478.04 L1595.88,1478.04 L1752.92,1711 L1927.64,1711 L1692.6,1380.28 L1919.32,1159.8 L1720.68,1159.8 L1509.56,1371.96 L1507.48,1371.96 L1507.48,951.8 L1358.76,951.8 L1358.76,1711 L1507.48,1711 Z" id="ck" fill="#3A3A4A"></path>
            <path d="M2091.94,1234.3 C2136.58,1234.3 2166.34,1218.18 2187.42,1196.48 L2188.66,1196.48 L2188.66,1225 L2270.5,1225 L2270.5,772.4 L2181.84,772.4 L2181.84,916.86 L2180.6,916.86 C2160.76,898.26 2131.62,887.1 2093.18,887.1 C2003.9,887.1 1941.28,960.26 1941.28,1060.7 C1941.28,1164.86 2004.52,1234.3 2091.94,1234.3 Z M2104.34,1153.08 C2059.7,1153.08 2029.94,1116.5 2029.94,1060.7 C2029.94,1004.28 2058.46,968.32 2104.96,968.32 C2149.6,968.32 2181.84,1001.8 2181.84,1039 L2181.84,1081.78 C2181.84,1121.46 2148.98,1153.08 2104.34,1153.08 Z" id="d" fill="#3A3A4A"></path>
        </g>
    </g>
</svg>